<svg aria-hidden="true" style="width:0;height:0;position:absolute;overflow:hidden" xmlns="http://www.w3.org/2000/svg"><defs><symbol id="icon-rocket" viewBox="0 0 32 32"><path d="M23.371 29.529s.335-2.012-1.731-4.469c2.011-5.641 2.29-10.778 2.29-10.778s4.133.95 4.133 5.026c-.001 6.981-4.692 10.221-4.692 10.221zm-11.392-2.451S9.211 18.195 9.211 14.51c0-1.658.187-3.133.478-4.472h12.61a20.76 20.76 0 0 1 .481 4.473c0 3.629-2.76 12.567-2.76 12.567h-8.041zm4.011-15.009a2.569 2.569 0 1 0 .001 5.137 2.569 2.569 0 0 0-.001-5.137zM15.438.596v-3.498h1V.507c1.143.832 4.236 3.478 5.635 8.575H9.913c1.352-4.957 4.296-7.574 5.525-8.486zM8.629 29.529s-4.691-3.24-4.691-10.221c0-4.076 4.133-5.026 4.133-5.026s.279 5.137 2.289 10.778c-2.067 2.458-1.731 4.469-1.731 4.469zm9.062.516-.838-.838L15.96 32l-1.062-2.793-.726 1.451-1.062-2.625h5.752l-1.171 2.012z"/></symbol></defs></svg>